<svg xmlns="http://www.w3.org/2000/svg" width="149" height="22" viewBox="0 0 149 22" fill="none"><g clip-path="url(#clip0)"><path d="M146.283 5.45688C144.784 5.45688 143.565 4.23378 143.565 2.72844C143.565 1.22309 144.784 0 146.283 0C147.782 0 149 1.22309 149 2.72844C149 4.23378 147.782 5.45688 146.283 5.45688ZM146.283 0.642908C145.143 0.642908 144.206 1.58375 144.206 2.72844C144.206 3.87313 145.143 4.81397 146.283 4.81397C147.423 4.81397 148.36 3.87313 148.36 2.72844C148.36 1.58375 147.423 0.642908 146.283 0.642908Z" fill="#FFF6EB"></path><path d="M146.751 3.71632L146.283 2.9166H145.939V3.71632H145.486V1.41125H146.408C146.626 1.41125 146.798 1.48966 146.954 1.63078C147.095 1.77191 147.173 1.96008 147.173 2.17961C147.173 2.46186 147.001 2.72843 146.736 2.85388L147.251 3.732H146.751V3.71632ZM145.939 1.83463V2.52458H146.408C146.58 2.52458 146.72 2.36778 146.72 2.17961C146.72 1.99144 146.58 1.83463 146.408 1.83463H145.939Z" fill="#FFF6EB"></path><path d="M137.693 18.1112C136.522 19.2716 135.085 19.8518 133.399 19.8518C131.712 19.8518 130.26 19.2716 129.104 18.1112C127.933 16.9195 127.355 15.4768 127.355 13.799C127.355 12.1212 127.933 10.6786 129.104 9.51819C130.275 8.32646 131.712 7.74627 133.399 7.74627C135.085 7.74627 136.538 8.32646 137.693 9.51819C138.865 10.6786 139.443 12.1212 139.443 13.799C139.443 15.4768 138.865 16.9195 137.693 18.1112ZM141.02 6.14684H139.911C139.661 6.14684 139.458 6.35069 139.458 6.60158V9.14185C138.053 6.9152 135.991 5.77051 133.258 5.77051C131.072 5.77051 129.198 6.53886 127.636 8.09125C126.106 9.65932 125.325 11.5567 125.325 13.7833C125.325 16.0257 126.09 17.923 127.636 19.4754C129.198 21.0435 131.072 21.7962 133.258 21.7962C135.991 21.7962 138.053 20.6672 139.458 18.4248V20.9651C139.458 21.216 139.661 21.4198 139.911 21.4198H141.02C141.27 21.4198 141.473 21.216 141.473 20.9651V6.60158C141.473 6.35069 141.27 6.14684 141.02 6.14684Z" fill="#FFF6EB"></path><path d="M116.907 22C119.718 22 122.233 20.6358 123.56 18.4248C123.685 18.2053 123.623 17.9231 123.388 17.7819L122.483 17.2645C122.264 17.139 121.998 17.2017 121.874 17.4213C120.827 19.0364 119.047 20.0399 116.907 20.0399C115.221 20.0399 113.768 19.4598 112.613 18.2994C111.441 17.1077 110.864 15.665 110.864 13.9872C110.864 12.3094 111.441 10.8667 112.613 9.70637C113.784 8.51464 115.221 7.93445 116.907 7.93445C119.031 7.93445 120.858 8.92233 121.764 10.5374C121.889 10.757 122.17 10.8197 122.389 10.6943L123.248 10.1925C123.466 10.067 123.545 9.80045 123.435 9.58092C122.233 7.36995 119.781 5.97437 116.907 5.97437C114.612 5.97437 112.675 6.74272 111.129 8.29511C109.599 9.83182 108.833 11.7292 108.833 13.9872C108.833 16.2452 109.599 18.1583 111.129 19.7106C112.675 21.2317 114.612 22 116.907 22Z" fill="#FFF6EB"></path><path d="M103.04 18.2994C101.868 19.4598 100.432 20.0399 98.745 20.0399C97.0584 20.0399 95.606 19.4598 94.4504 18.2994C93.2791 17.1077 92.7013 15.665 92.7013 13.9872C92.7013 12.3094 93.2791 10.8667 94.4504 9.70637C95.6217 8.51464 97.0584 7.93445 98.745 7.93445C100.432 7.93445 101.884 8.51464 103.04 9.70637C104.211 10.8667 104.789 12.3094 104.789 13.9872C104.789 15.665 104.195 17.1077 103.04 18.2994ZM104.445 8.29511C102.883 6.72704 100.978 5.97437 98.7294 5.97437C96.4806 5.97437 94.5597 6.74272 92.9824 8.29511C91.4207 9.83182 90.6555 11.7292 90.6555 13.9872C90.6555 16.2452 91.4207 18.1583 92.9824 19.7106C94.5441 21.2474 96.4806 22 98.7294 22C100.978 22 102.868 21.2317 104.445 19.7106C106.007 18.1426 106.803 16.2452 106.803 13.9872C106.803 11.7135 106.007 9.81613 104.445 8.29511Z" fill="#FFF6EB"></path><path d="M84.8617 18.2994C83.6904 19.4597 82.2537 20.0399 80.567 20.0399C78.8804 20.0399 77.4281 19.4597 76.2724 18.2994C75.1012 17.1076 74.5233 15.665 74.5233 13.9872C74.5233 12.3093 75.1012 10.8667 76.2724 9.70636C77.4437 8.51462 78.8804 7.93444 80.567 7.93444C82.2537 7.93444 83.706 8.51462 84.8617 9.70636C86.0329 10.8667 86.6107 12.3093 86.6107 13.9872C86.6107 15.665 86.0173 17.1076 84.8617 18.2994ZM86.2984 8.2951C84.7679 6.72703 82.8939 5.97435 80.7076 5.97435C77.9746 5.97435 75.9132 7.10336 74.5077 9.3457V0.674283C74.5077 0.423392 74.3047 0.219543 74.0548 0.219543H72.9304C72.6806 0.219543 72.4775 0.423392 72.4775 0.674283V21.1689C72.4775 21.4198 72.6806 21.6237 72.9304 21.6237H74.0392C74.2891 21.6237 74.4921 21.4198 74.4921 21.1689V18.6287C75.8976 20.871 77.959 22 80.692 22C82.8783 22 84.7523 21.2317 86.2828 19.6793C87.8445 18.1112 88.6097 16.2138 88.6097 13.9872C88.6253 11.7448 87.8601 9.84748 86.2984 8.2951Z" fill="#FFF6EB"></path><path d="M65.8561 18.2994C64.6848 19.4597 63.2481 20.0399 61.5614 20.0399C59.8748 20.0399 58.4225 19.4597 57.2668 18.2994C56.0956 17.1076 55.5177 15.665 55.5177 13.9872C55.5177 12.3094 56.0956 10.8667 57.2668 9.70636C58.4381 8.51463 59.8748 7.93445 61.5614 7.93445C63.2481 7.93445 64.7004 8.51463 65.8561 9.70636C67.0273 10.8667 67.6051 12.3094 67.6051 13.9872C67.6208 15.665 67.0273 17.1076 65.8561 18.2994ZM69.1824 6.33502H68.0737C67.8238 6.33502 67.6208 6.53886 67.6208 6.78976V9.33003C66.2153 7.10337 64.1538 5.95868 61.4209 5.95868C59.2345 5.95868 57.3605 6.72703 55.7988 8.27942C54.2684 9.84749 53.4875 11.7449 53.4875 13.9715C53.4875 16.2138 54.2528 18.1112 55.7988 19.6636C57.3605 21.2317 59.2345 21.9843 61.4209 21.9843C64.1538 21.9843 66.2153 20.8553 67.6208 18.613V21.1689C67.6208 21.4198 67.8238 21.6237 68.0737 21.6237H69.1824C69.4323 21.6237 69.6353 21.4198 69.6353 21.1689V6.78976C69.6353 6.53886 69.4323 6.33502 69.1824 6.33502Z" fill="#FFF6EB"></path><path d="M45.1169 22C47.9279 22 50.4422 20.6358 51.7696 18.4248C51.8945 18.2053 51.8321 17.9231 51.5978 17.7819L50.6921 17.2645C50.4734 17.139 50.2079 17.2017 50.083 17.4213C49.0367 19.0364 47.2564 20.0399 45.1169 20.0399C43.4302 20.0399 41.9779 19.4598 40.8222 18.2994C39.651 17.1077 39.0732 15.665 39.0732 13.9872C39.0732 12.3094 39.651 10.8667 40.8222 9.70637C41.9935 8.51464 43.4302 7.93445 45.1169 7.93445C47.2407 7.93445 49.0679 8.92233 49.9737 10.5374C50.0986 10.757 50.3797 10.8197 50.5984 10.6943L51.4573 10.1925C51.6759 10.067 51.754 9.80045 51.6447 9.58092C50.4422 7.36995 47.9903 5.97437 45.1169 5.97437C42.8212 5.97437 40.8847 6.74272 39.3386 8.29511C37.8082 9.83182 37.043 11.7292 37.043 13.9872C37.043 16.2452 37.8082 18.1583 39.3386 19.7106C40.8691 21.2317 42.8056 22 45.1169 22Z" fill="#FFF6EB"></path><path d="M31.6085 18.2994C30.4372 19.4598 29.0005 20.0399 27.3139 20.0399C25.6273 20.0399 24.1749 19.4598 23.0193 18.2994C21.848 17.1077 21.2702 15.665 21.2702 13.9872C21.2702 12.3094 21.848 10.8667 23.0193 9.70637C24.1905 8.51464 25.6273 7.93445 27.3139 7.93445C29.0005 7.93445 30.4529 8.51464 31.6085 9.70637C32.7798 10.8667 33.3576 12.3094 33.3576 13.9872C33.3576 15.665 32.7641 17.1077 31.6085 18.2994ZM33.014 8.29511C31.4523 6.72704 29.5471 5.97437 27.2983 5.97437C25.0494 5.97437 23.1286 6.74272 21.5513 8.29511C19.9896 9.83182 19.2244 11.7292 19.2244 13.9872C19.2244 16.2452 19.9896 18.1583 21.5513 19.7106C23.113 21.2474 25.0494 22 27.2983 22C29.5471 22 31.4367 21.2317 33.014 19.7106C34.5757 18.1426 35.3722 16.2452 35.3722 13.9872C35.3878 11.7135 34.5757 9.81613 33.014 8.29511Z" fill="#FFF6EB"></path><path d="M14.2894 18.4875C13.5554 19.2559 12.6652 19.6165 11.5877 19.6165H2.60801C2.35814 19.6165 2.15512 19.4127 2.15512 19.1618V2.69709C2.15512 2.4462 2.35814 2.24235 2.60801 2.24235H10.8693C11.8844 2.24235 12.7121 2.603 13.4148 3.33999C14.1176 4.07699 14.4924 4.9551 14.4924 5.97435C14.4924 7.00927 14.1176 7.90307 13.4148 8.64007C12.7121 9.3457 11.8844 9.70635 10.8693 9.70635H9.18269C8.23006 9.70635 7.41799 9.0948 7.12127 8.24805C6.98072 7.82467 6.60591 7.54242 6.15302 7.54242C5.46588 7.54242 4.96615 8.23237 5.2004 8.89096C5.7626 10.5374 7.32429 11.7292 9.16707 11.7448H9.18269H11.5721C12.6496 11.7448 13.5398 12.1369 14.2738 12.9052C15.039 13.6736 15.4138 14.6144 15.4138 15.6964C15.4138 16.7627 15.0546 17.7192 14.2894 18.4875ZM14.1332 10.5217C15.8198 9.48682 16.6475 7.95012 16.6475 5.95867C16.6475 4.3906 16.1009 3.05774 14.9609 1.91305C13.8209 0.784043 12.4778 0.203857 10.8693 0.203857H0.452888C0.203019 0.203857 0 0.423387 0 0.674278V21.1689C0 21.4198 0.203019 21.6237 0.452888 21.6237H11.5721C13.2274 21.6237 14.6486 21.0435 15.8042 19.8831C16.9755 18.7227 17.5533 17.3115 17.5533 15.665C17.5689 13.3443 16.2259 11.4155 14.1332 10.5217Z" fill="#FFF6EB"></path></g><defs><clipPath id="clip0"><rect width="149" height="22" fill="white"></rect></clipPath></defs></svg>